<!-- SVG Sprite Sheet -->
    <svg style="display: none;" xmlns="http://www.w3.org/2000/svg">
        <symbol id="icon-phone" viewBox="0 0 24 24">
            <path d="M6.62 10.79c1.44 2.83 3.76 5.15 6.59 6.59l2.2-2.2c.27-.27.67-.36 1.02-.24 1.12.37 2.33.57 3.57.57.55 0 1 .45 1 1V20c0 .55-.45 1-1 1-9.39 0-17-7.61-17-17 0-.55.45-1 1-1h3.5c.55 0 1 .45 1 1 0 1.25.2 2.45.57 3.57.11.35.03.74-.25 1.02l-2.2 2.2z"/>
        </symbol>
        <symbol id="icon-whatsapp" viewBox="0 0 24 24">
            <path d="M16.75 13.96c.25.13.41.2.46.3.06.11.04.61-.21 1.18-.2.56-1.24 1.1-1.7 1.12-.46.02-.47.36-2.96-.73-2.49-1.09-3.99-3.75-4.11-3.92-.12-.17-.96-1.38-.92-2.61.05-1.22.69-1.8.95-2.04.24-.26.51-.29.68-.26h.47c.15 0 .36-.06.55.45l.69 1.87c.06.13.1.28.01.44l-.27.41-.39.42c-.12.12-.26.25-.12.5.12.26.62 1.09 1.32 1.78.91.88 1.71 1.17 1.95 1.3.24.14.39.12.54-.04l.81-.94c.19-.25.35-.19.58-.11l1.67.88"/>
        </symbol>
        <symbol id="icon-email" viewBox="0 0 24 24">
            <path d="M20 4H4c-1.1 0-1.99.9-1.99 2L2 18c0 1.1.9 2 2 2h16c1.1 0 2-.9 2-2V6c0-1.1-.9-2-2-2zm0 4l-8 5-8-5V6l8 5 8-5v2z"/>
        </symbol>
        <symbol id="icon-linkedin" viewBox="0 0 24 24">
            <path d="M19 3a2 2 0 0 1 2 2v14a2 2 0 0 1-2 2H5a2 2 0 0 1-2-2V5a2 2 0 0 1 2-2h14m-.5 15.5v-5.3a3.26 3.26 0 0 0-3.26-3.26c-.85 0-1.84.52-2.32 1.3v-1.11h-2.79v8.37h2.79v-4.93c0-.77.62-1.4 1.39-1.4a1.4 1.4 0 0 1 1.4 1.4v4.93h2.79M6.88 8.56a1.68 1.68 0 0 0 1.68-1.68c0-.93-.75-1.69-1.68-1.69a1.69 1.69 0 0 0-1.69 1.69c0 .93.76 1.68 1.69 1.68m1.39 9.94v-8.37H5.5v8.37h2.77z"/>
        </symbol>
        <symbol id="icon-website" viewBox="0 0 24 24">
            <path d="M12 2C6.48 2 2 6.48 2 12s4.48 10 10 10 10-4.48 10-10S17.52 2 12 2zm-1 17.93c-3.95-.49-7-3.85-7-7.93 0-.62.08-1.21.21-1.79L9 15v1c0 1.1.9 2 2 2v1.93zm6.9-2.54c-.26-.81-1-1.39-1.9-1.39h-1v-3c0-.55-.45-1-1-1H8v-2h2c.55 0 1-.45 1-1V7h2c1.1 0 2-.9 2-2v-.41c2.93 1.19 5 4.06 5 7.41 0 2.08-.8 3.97-2.1 5.39z"/>
        </symbol>
        <symbol id="icon-location" viewBox="0 0 24 24">
            <path d="M12 2C8.13 2 5 5.13 5 9c0 5.25 7 13 7 13s7-7.75 7-13c0-3.87-3.13-7-7-7zm0 9.5c-1.38 0-2.5-1.12-2.5-2.5s1.12-2.5 2.5-2.5 2.5 1.12 2.5 2.5-1.12 2.5-2.5 2.5z"/>
        </symbol>
    </svg>